<mxfile host="app.diagrams.net" agent="Mozilla/5.0 (Windows NT 10.0; Win64; x64) AppleWebKit/537.36 (KHTML, like Gecko) Chrome/129.0.0.0 Safari/537.36" version="24.7.16">
  <diagram name="Page-1" id="80d4a630-b321-0f5e-ff81-c5a36ef4752d">
    <mxGraphModel grid="0" page="1" gridSize="10" guides="1" tooltips="1" connect="1" arrows="1" fold="1" pageScale="1" pageWidth="1100" pageHeight="850" background="none" math="0" shadow="0">
      <root>
        <mxCell id="0" />
        <mxCell id="1" parent="0" />
        <mxCell id="aU2U4qBqNB-lsiwOZHSh-42" value="" style="rounded=0;whiteSpace=wrap;html=1;fillColor=#E6E6E6;" vertex="1" parent="1">
          <mxGeometry x="1070" y="-18.5" width="1099" height="561" as="geometry" />
        </mxCell>
        <mxCell id="aU2U4qBqNB-lsiwOZHSh-41" value="" style="rounded=1;whiteSpace=wrap;html=1;fillColor=#FFFFFF;" vertex="1" parent="1">
          <mxGeometry x="1136" width="1000" height="524" as="geometry" />
        </mxCell>
        <mxCell id="aU2U4qBqNB-lsiwOZHSh-27" value="" style="sketch=0;aspect=fixed;pointerEvents=1;shadow=0;dashed=0;html=1;strokeColor=none;labelPosition=center;verticalLabelPosition=bottom;verticalAlign=top;align=center;fillColor=#D4E1F5;shape=mxgraph.azure.enterprise" vertex="1" parent="1">
          <mxGeometry x="1810" y="45" width="258" height="430" as="geometry" />
        </mxCell>
        <mxCell id="5c82df7aa0dc6260-15" value="" style="ellipse;whiteSpace=wrap;html=1;rounded=1;shadow=0;comic=0;labelBackgroundColor=none;strokeColor=#6881B3;strokeWidth=2;fillColor=#F0FFF1;fontFamily=Helvetica;fontSize=22;fontColor=#000000;verticalAlign=middle;gradientColor=none;gradientDirection=north;spacingBottom=36;" vertex="1" parent="1">
          <mxGeometry x="1154" y="194" width="430" height="210" as="geometry" />
        </mxCell>
        <mxCell id="5c82df7aa0dc6260-26" style="edgeStyle=none;rounded=0;html=1;labelBackgroundColor=none;endArrow=none;strokeColor=#6881B3;strokeWidth=2;fontFamily=Verdana;fontSize=28;fontColor=#0066CC;" edge="1" parent="1">
          <mxGeometry relative="1" as="geometry">
            <mxPoint x="1408.5" y="216.15483870967734" as="sourcePoint" />
            <mxPoint x="1548.5" y="276.3698924731182" as="targetPoint" />
          </mxGeometry>
        </mxCell>
        <mxCell id="5c82df7aa0dc6260-28" style="edgeStyle=none;rounded=0;html=1;labelBackgroundColor=none;endArrow=none;strokeColor=#6881B3;strokeWidth=2;fontFamily=Verdana;fontSize=28;fontColor=#0066CC;" edge="1" parent="1">
          <mxGeometry relative="1" as="geometry">
            <mxPoint x="1343.5" y="382.8" as="sourcePoint" />
            <mxPoint x="1183.5" y="318.8" as="targetPoint" />
          </mxGeometry>
        </mxCell>
        <mxCell id="5c82df7aa0dc6260-29" style="edgeStyle=none;rounded=0;html=1;labelBackgroundColor=none;endArrow=none;strokeColor=#6881B3;strokeWidth=2;fontFamily=Verdana;fontSize=28;fontColor=#0066CC;" edge="1" parent="1">
          <mxGeometry relative="1" as="geometry">
            <mxPoint x="1188.5" y="268.390909090909" as="sourcePoint" />
            <mxPoint x="1318.5" y="215.209090909091" as="targetPoint" />
          </mxGeometry>
        </mxCell>
        <mxCell id="5c82df7aa0dc6260-27" style="edgeStyle=none;rounded=0;html=1;labelBackgroundColor=none;endArrow=none;strokeColor=#6881B3;strokeWidth=2;fontFamily=Verdana;fontSize=28;fontColor=#0066CC;" edge="1" parent="1">
          <mxGeometry relative="1" as="geometry">
            <mxPoint x="1548.5" y="329.9111111111111" as="sourcePoint" />
            <mxPoint x="1438.5" y="378.8" as="targetPoint" />
          </mxGeometry>
        </mxCell>
        <mxCell id="5c82df7aa0dc6260-33" value="" style="shape=image;html=1;verticalAlign=top;verticalLabelPosition=bottom;labelBackgroundColor=#ffffff;imageAspect=0;aspect=fixed;image=https://cdn0.iconfinder.com/data/icons/fatcow/32x32/tree.png;rounded=1;shadow=0;comic=0;strokeColor=#6881B3;strokeWidth=2;fillColor=#CCFFCC;fontColor=#0066CC;" vertex="1" parent="1">
          <mxGeometry x="1476" y="327" width="32" height="32" as="geometry" />
        </mxCell>
        <mxCell id="5c82df7aa0dc6260-44" value="" style="ellipse;shape=cloud;whiteSpace=wrap;html=1;rounded=1;shadow=0;comic=0;strokeColor=none;strokeWidth=2;fillColor=#3399FF;fontColor=#0066CC;" vertex="1" parent="1">
          <mxGeometry x="1162" y="254" width="110" height="35" as="geometry" />
        </mxCell>
        <mxCell id="5c82df7aa0dc6260-54" value="" style="shape=image;html=1;verticalAlign=top;verticalLabelPosition=bottom;labelBackgroundColor=#ffffff;imageAspect=0;aspect=fixed;image=https://cdn0.iconfinder.com/data/icons/fatcow/32x32/tree.png;rounded=1;shadow=0;comic=0;strokeColor=#6881B3;strokeWidth=2;fillColor=#CCFFCC;fontColor=#0066CC;" vertex="1" parent="1">
          <mxGeometry x="1197" y="329" width="32" height="32" as="geometry" />
        </mxCell>
        <mxCell id="aU2U4qBqNB-lsiwOZHSh-1" value="" style="shape=image;html=1;verticalAlign=top;verticalLabelPosition=bottom;labelBackgroundColor=#ffffff;imageAspect=0;aspect=fixed;image=https://cdn3.iconfinder.com/data/icons/2018-social-media-logotypes/1000/2018_social_media_popular_app_logo-whatsapp-128.png" vertex="1" parent="1">
          <mxGeometry x="1394" y="267.56" width="40.5" height="40.5" as="geometry" />
        </mxCell>
        <mxCell id="aU2U4qBqNB-lsiwOZHSh-13" style="edgeStyle=orthogonalEdgeStyle;rounded=0;orthogonalLoop=1;jettySize=auto;html=1;entryX=0;entryY=0.5;entryDx=0;entryDy=0;" edge="1" parent="1" target="aU2U4qBqNB-lsiwOZHSh-7">
          <mxGeometry relative="1" as="geometry">
            <mxPoint x="1844.5" y="294.79999999999995" as="sourcePoint" />
          </mxGeometry>
        </mxCell>
        <mxCell id="aU2U4qBqNB-lsiwOZHSh-7" value="" style="shape=image;verticalLabelPosition=bottom;labelBackgroundColor=default;verticalAlign=top;aspect=fixed;imageAspect=0;image=https://glpi-project.org/wp-content/uploads/2021/06/logo-glpi-bleu-1.png;" vertex="1" parent="1">
          <mxGeometry x="1900" y="268.81" width="79.28" height="53.75" as="geometry" />
        </mxCell>
        <mxCell id="aU2U4qBqNB-lsiwOZHSh-12" style="edgeStyle=orthogonalEdgeStyle;rounded=0;orthogonalLoop=1;jettySize=auto;html=1;" edge="1" parent="1" source="aU2U4qBqNB-lsiwOZHSh-8" target="aU2U4qBqNB-lsiwOZHSh-11">
          <mxGeometry relative="1" as="geometry" />
        </mxCell>
        <mxCell id="aU2U4qBqNB-lsiwOZHSh-8" value="" style="image;points=[];aspect=fixed;html=1;align=center;shadow=0;dashed=0;image=img/lib/allied_telesis/computer_and_terminals/Server_Desktop.svg;" vertex="1" parent="1">
          <mxGeometry x="1990" y="245.5" width="71.79" height="91" as="geometry" />
        </mxCell>
        <mxCell id="aU2U4qBqNB-lsiwOZHSh-11" value="" style="image;points=[];aspect=fixed;html=1;align=center;shadow=0;dashed=0;image=img/lib/allied_telesis/computer_and_terminals/Server_Desktop.svg;" vertex="1" parent="1">
          <mxGeometry x="1990" y="377.5" width="71.79" height="91" as="geometry" />
        </mxCell>
        <mxCell id="aU2U4qBqNB-lsiwOZHSh-10" value="" style="shape=image;verticalLabelPosition=bottom;labelBackgroundColor=default;verticalAlign=top;aspect=fixed;imageAspect=0;image=https://d1.awsstatic.com/logos/partners/MariaDB_Logo.d8a208f0a889a8f0f0551b8391a065ea79c54f3a.png;" vertex="1" parent="1">
          <mxGeometry x="2027.1899999999998" y="395" width="97.15" height="50" as="geometry" />
        </mxCell>
        <mxCell id="aU2U4qBqNB-lsiwOZHSh-18" value="" style="shape=image;html=1;verticalAlign=top;verticalLabelPosition=bottom;labelBackgroundColor=#ffffff;imageAspect=0;aspect=fixed;image=https://cdn0.iconfinder.com/data/icons/fatcow/32x32/tree.png;rounded=1;shadow=0;comic=0;strokeColor=#6881B3;strokeWidth=2;fillColor=#CCFFCC;fontColor=#0066CC;" vertex="1" parent="1">
          <mxGeometry x="1463" y="212" width="32" height="32" as="geometry" />
        </mxCell>
        <mxCell id="aU2U4qBqNB-lsiwOZHSh-19" value="" style="shape=image;html=1;verticalAlign=top;verticalLabelPosition=bottom;labelBackgroundColor=#ffffff;imageAspect=0;aspect=fixed;image=https://cdn0.iconfinder.com/data/icons/fatcow/32x32/tree.png;rounded=1;shadow=0;comic=0;strokeColor=#6881B3;strokeWidth=2;fillColor=#CCFFCC;fontColor=#0066CC;" vertex="1" parent="1">
          <mxGeometry x="1493" y="228" width="32" height="32" as="geometry" />
        </mxCell>
        <mxCell id="aU2U4qBqNB-lsiwOZHSh-21" value="" style="shape=image;html=1;verticalAlign=top;verticalLabelPosition=bottom;labelBackgroundColor=#ffffff;imageAspect=0;aspect=fixed;image=https://cdn0.iconfinder.com/data/icons/fatcow/32x32/tree.png;rounded=1;shadow=0;comic=0;strokeColor=#6881B3;strokeWidth=2;fillColor=#CCFFCC;fontColor=#0066CC;" vertex="1" parent="1">
          <mxGeometry x="1204" y="222" width="32" height="32" as="geometry" />
        </mxCell>
        <mxCell id="aU2U4qBqNB-lsiwOZHSh-22" value="" style="shape=image;html=1;verticalAlign=top;verticalLabelPosition=bottom;labelBackgroundColor=#ffffff;imageAspect=0;aspect=fixed;image=https://cdn0.iconfinder.com/data/icons/fatcow/32x32/tree.png;rounded=1;shadow=0;comic=0;strokeColor=#6881B3;strokeWidth=2;fillColor=#CCFFCC;fontColor=#0066CC;" vertex="1" parent="1">
          <mxGeometry x="1234" y="238" width="32" height="32" as="geometry" />
        </mxCell>
        <mxCell id="aU2U4qBqNB-lsiwOZHSh-34" value="" style="shape=image;verticalLabelPosition=bottom;labelBackgroundColor=default;verticalAlign=top;aspect=fixed;imageAspect=0;image=https://webhostinggeeks.com/blog/wp-content/uploads/2023/09/CentOS-Logo-980x559-optimized.png;clipPath=inset(26.61% 10.33% 28.95% 10%);" vertex="1" parent="1">
          <mxGeometry x="2030" y="286" width="94.34" height="30" as="geometry" />
        </mxCell>
        <mxCell id="aU2U4qBqNB-lsiwOZHSh-35" value="" style="image;aspect=fixed;html=1;points=[];align=center;fontSize=12;image=img/lib/azure2/azure_stack/User_Subscriptions.svg;" vertex="1" parent="1">
          <mxGeometry x="1860" y="403" width="43.27" height="42" as="geometry" />
        </mxCell>
        <mxCell id="aU2U4qBqNB-lsiwOZHSh-38" style="edgeStyle=orthogonalEdgeStyle;rounded=0;orthogonalLoop=1;jettySize=auto;html=1;" edge="1" parent="1" source="aU2U4qBqNB-lsiwOZHSh-36" target="aU2U4qBqNB-lsiwOZHSh-7">
          <mxGeometry relative="1" as="geometry">
            <Array as="points">
              <mxPoint x="1950" y="435" />
            </Array>
          </mxGeometry>
        </mxCell>
        <mxCell id="aU2U4qBqNB-lsiwOZHSh-36" value="" style="image;aspect=fixed;html=1;points=[];align=center;fontSize=12;image=img/lib/azure2/azure_stack/User_Subscriptions.svg;" vertex="1" parent="1">
          <mxGeometry x="1883.27" y="426" width="43.27" height="42" as="geometry" />
        </mxCell>
        <mxCell id="aU2U4qBqNB-lsiwOZHSh-37" value="Users" style="image;aspect=fixed;html=1;points=[];align=right;fontSize=12;image=img/lib/azure2/azure_stack/User_Subscriptions.svg;" vertex="1" parent="1">
          <mxGeometry x="1840" y="426.5" width="43.27" height="42" as="geometry" />
        </mxCell>
        <mxCell id="aU2U4qBqNB-lsiwOZHSh-40" style="edgeStyle=orthogonalEdgeStyle;rounded=0;orthogonalLoop=1;jettySize=auto;html=1;entryX=0.008;entryY=0.487;entryDx=0;entryDy=0;entryPerimeter=0;" edge="1" parent="1" source="aU2U4qBqNB-lsiwOZHSh-1">
          <mxGeometry relative="1" as="geometry">
            <Array as="points">
              <mxPoint x="1458" y="294" />
            </Array>
            <mxPoint x="1790.4360000000001" y="294.21694" as="targetPoint" />
          </mxGeometry>
        </mxCell>
        <mxCell id="zi-0c1HKNYCuM80DhpJW-2" value="Colaboradores&lt;br&gt;Vendedores&lt;br&gt;Representantes" style="outlineConnect=0;dashed=0;verticalLabelPosition=bottom;verticalAlign=top;align=center;html=1;shape=mxgraph.aws3.users;fillColor=#D2D3D3;gradientColor=none;" vertex="1" parent="1">
          <mxGeometry x="1319" y="256.31" width="66" height="63" as="geometry" />
        </mxCell>
        <mxCell id="zi-0c1HKNYCuM80DhpJW-3" value="Suporte de TI" style="sketch=0;outlineConnect=0;fontColor=#232F3E;gradientColor=none;fillColor=#232F3D;strokeColor=none;dashed=0;verticalLabelPosition=bottom;verticalAlign=top;align=center;html=1;fontSize=12;fontStyle=0;aspect=fixed;pointerEvents=1;shape=mxgraph.aws4.users;" vertex="1" parent="1">
          <mxGeometry x="1776" y="244.56" width="78" height="78" as="geometry" />
        </mxCell>
      </root>
    </mxGraphModel>
  </diagram>
</mxfile>
